<svg width="131" height="144" viewBox="0 0 131 144" fill="none" xmlns="http://www.w3.org/2000/svg">
<g clip-path="url(#clip0)">
<path d="M122.823 45.1802L124.323 45.1801L124.323 43.6802L124.322 27.258C124.323 23.7006 123.433 20.7568 121.388 18.7128C119.344 16.669 116.401 15.7786 112.843 15.7786L70.3987 15.7786C66.841 15.7786 63.8972 16.6691 61.8534 18.7129C59.8096 20.7567 58.9192 23.7004 58.9192 27.2581L58.9192 85.872C58.9192 89.4297 59.8097 92.3735 61.8534 94.4173C63.8972 96.4611 66.8409 97.3515 70.3986 97.3515L112.843 97.3514C116.401 97.3515 119.345 96.4611 121.388 94.4172C123.432 92.3734 124.322 89.4295 124.323 85.872L124.322 69.4499L124.323 67.9499L122.822 67.95L111.707 67.9501L110.207 67.95L110.206 69.45L110.207 84.4825C110.206 85.2614 110.147 85.8329 110.055 86.2295C110.005 86.4496 109.952 86.5784 109.919 86.6465C109.845 86.6774 109.71 86.7247 109.486 86.7697C109.091 86.8487 108.534 86.8984 107.79 86.8983L75.4516 86.8984C74.7073 86.8984 74.1511 86.8486 73.7561 86.7696C73.5314 86.7247 73.3963 86.6776 73.323 86.6465C73.2896 86.5784 73.2375 86.4496 73.1867 86.2294C73.0951 85.8328 73.0356 85.2613 73.0356 84.4824L73.0356 28.6477C73.0356 27.866 73.0957 27.3118 73.1837 26.945C73.2338 26.7359 73.2811 26.6376 73.2986 26.6046L73.3061 26.5984L73.352 26.5524C73.3519 26.5526 73.3518 26.5526 73.3518 26.5528C73.3523 26.5533 73.4584 26.4646 73.8121 26.3798C74.1834 26.2907 74.719 26.2317 75.4516 26.2317L107.79 26.2317C108.523 26.2317 109.058 26.2907 109.43 26.3797C109.784 26.4647 109.89 26.5532 109.89 26.5527L109.936 26.5984L109.943 26.6046C109.961 26.6375 110.008 26.736 110.058 26.945C110.146 27.3118 110.206 27.866 110.206 28.6477L110.206 43.68L110.206 45.18L111.706 45.18L122.823 45.1802Z" fill="white" stroke="white" stroke-width="3"/>
<path d="M8.43052 47.1164L6.93052 47.1163L6.93052 48.6163L6.93045 127.19L6.93065 128.689L8.4306 128.689L61.9914 128.69C65.5491 128.689 68.4929 127.799 70.5366 125.755C72.5804 123.712 73.4709 120.768 73.471 117.21L73.4709 94.2188C73.471 92.1785 72.9833 90.3753 71.8266 88.9929C71.5452 88.6566 71.2338 88.3567 70.8955 88.0912C71.2451 87.8128 71.5657 87.4918 71.8541 87.1261C73.0052 85.6662 73.471 83.7051 73.471 81.4603L73.4709 58.5958C73.4709 55.0381 72.5805 52.0943 70.5367 50.0505C68.493 48.0068 65.5491 47.1163 61.9914 47.1163L8.43052 47.1164ZM58.8939 93.2142C59.1029 93.2643 59.2013 93.3116 59.2343 93.3291L59.2405 93.3366L59.2862 93.3823C59.2856 93.3828 59.3742 93.4889 59.4591 93.8426C59.5482 94.2139 59.6072 94.7496 59.6072 95.4821L59.6073 115.946C59.6072 116.679 59.5484 117.214 59.4592 117.586C59.4099 117.791 59.3597 117.912 59.326 117.979C59.251 118.009 59.1083 118.058 58.866 118.105C58.4462 118.186 57.8549 118.236 57.0648 118.236L21.047 118.236L21.0469 93.0665L57.1911 93.0661C57.9729 93.0661 58.527 93.1261 58.8939 93.2142ZM58.8939 57.7175C59.1029 57.7676 59.2013 57.8148 59.2342 57.8324L59.2842 57.8923L59.3441 57.9423C59.3617 57.9752 59.409 58.0736 59.4591 58.2827C59.5471 58.6495 59.6072 59.2037 59.6072 59.9854L59.6071 80.197C59.6072 80.976 59.5476 81.5474 59.4561 81.9441C59.3983 82.1947 59.3387 82.3269 59.3069 82.3861C59.2543 82.4071 59.1444 82.4454 58.9498 82.4842C58.5587 82.5625 57.9835 82.613 57.1912 82.6131L21.0469 82.613L21.0469 57.5694L57.1912 57.5693C57.9728 57.5693 58.5271 57.6294 58.8939 57.7175Z" fill="white" stroke="white" stroke-width="3"/>
<path d="M78.7471 15.2195L26.1066 15.2195L26.1066 26.8734L78.7471 26.8734L78.7471 15.2195Z" fill="white"/>
<path d="M78.7471 15.2195L26.1066 15.2195L26.1066 26.8734L78.7471 26.8734L78.7471 15.2195Z" stroke="white"/>
</g>
<defs>
<clipPath id="clip0">
<rect width="131" height="144" fill="white"/>
</clipPath>
</defs>
</svg>
